<svg xmlns="http://www.w3.org/2000/svg" xmlns:xlink="http://www.w3.org/1999/xlink" width="200" zoomAndPan="magnify" viewBox="0 0 150 74.999997" height="100" preserveAspectRatio="xMidYMid meet" version="1.0"><defs><g/><clipPath id="1b3944e8a6"><path d="M 38 12 L 43 12 L 43 14.671875 L 38 14.671875 Z M 38 12 " clip-rule="nonzero"/></clipPath><clipPath id="e12bbd2f67"><path d="M 36.1875 2 L 45.304688 2 L 45.304688 12 L 36.1875 12 Z M 36.1875 2 " clip-rule="nonzero"/></clipPath><clipPath id="6c3b50de78"><path d="M 36.1875 1.800781 L 45.304688 1.800781 L 45.304688 12 L 36.1875 12 Z M 36.1875 1.800781 " clip-rule="nonzero"/></clipPath><clipPath id="93453d28f3"><path d="M 38 12 L 43 12 L 43 14.671875 L 38 14.671875 Z M 38 12 " clip-rule="nonzero"/></clipPath><clipPath id="796e810b96"><path d="M 36.1875 2 L 45 2 L 45 12 L 36.1875 12 Z M 36.1875 2 " clip-rule="nonzero"/></clipPath><clipPath id="fb9b98d525"><path d="M 0.605469 1.664062 L 12.402344 1.664062 L 12.402344 44.867188 L 0.605469 44.867188 Z M 0.605469 1.664062 " clip-rule="nonzero"/></clipPath><clipPath id="a68db202f6"><path d="M 137.597656 30.640625 L 149.394531 30.640625 L 149.394531 73.847656 L 137.597656 73.847656 Z M 137.597656 30.640625 " clip-rule="nonzero"/></clipPath></defs><g fill="#050a30" fill-opacity="1"><g transform="translate(20.656732, 66.961186)"><g><path d="M 4.171875 -8.25 C 4.742188 -8.25 5.222656 -8.175781 5.609375 -8.03125 C 5.992188 -7.882812 6.351562 -7.675781 6.6875 -7.40625 L 5.875 -6.421875 C 5.632812 -6.609375 5.378906 -6.753906 5.109375 -6.859375 C 4.835938 -6.960938 4.546875 -7.015625 4.234375 -7.015625 C 3.867188 -7.015625 3.53125 -6.914062 3.21875 -6.71875 C 2.90625 -6.519531 2.65625 -6.203125 2.46875 -5.765625 C 2.28125 -5.335938 2.1875 -4.765625 2.1875 -4.046875 C 2.1875 -3.347656 2.273438 -2.78125 2.453125 -2.34375 C 2.640625 -1.914062 2.882812 -1.601562 3.1875 -1.40625 C 3.5 -1.207031 3.851562 -1.109375 4.25 -1.109375 C 4.664062 -1.109375 5.007812 -1.179688 5.28125 -1.328125 C 5.5625 -1.472656 5.816406 -1.632812 6.046875 -1.8125 L 6.796875 -0.84375 C 6.515625 -0.5625 6.160156 -0.316406 5.734375 -0.109375 C 5.304688 0.0859375 4.785156 0.1875 4.171875 0.1875 C 3.460938 0.1875 2.832031 0.0234375 2.28125 -0.296875 C 1.726562 -0.617188 1.289062 -1.09375 0.96875 -1.71875 C 0.65625 -2.351562 0.5 -3.128906 0.5 -4.046875 C 0.5 -4.953125 0.660156 -5.71875 0.984375 -6.34375 C 1.316406 -6.96875 1.757812 -7.441406 2.3125 -7.765625 C 2.875 -8.085938 3.492188 -8.25 4.171875 -8.25 Z M 4.171875 -8.25 "/></g></g></g><g fill="#050a30" fill-opacity="1"><g transform="translate(26.422542, 66.961186)"><g><path d="M 3.5 -6.359375 C 4.125 -6.359375 4.648438 -6.222656 5.078125 -5.953125 C 5.503906 -5.691406 5.828125 -5.316406 6.046875 -4.828125 C 6.273438 -4.335938 6.390625 -3.765625 6.390625 -3.109375 C 6.390625 -2.429688 6.273438 -1.847656 6.046875 -1.359375 C 5.828125 -0.867188 5.5 -0.488281 5.0625 -0.21875 C 4.632812 0.0507812 4.113281 0.1875 3.5 0.1875 C 2.882812 0.1875 2.359375 0.0546875 1.921875 -0.203125 C 1.492188 -0.472656 1.164062 -0.851562 0.9375 -1.34375 C 0.71875 -1.832031 0.609375 -2.414062 0.609375 -3.09375 C 0.609375 -3.738281 0.722656 -4.304688 0.953125 -4.796875 C 1.179688 -5.285156 1.507812 -5.664062 1.9375 -5.9375 C 2.363281 -6.21875 2.882812 -6.359375 3.5 -6.359375 Z M 3.5 -5.171875 C 3.082031 -5.171875 2.765625 -5.003906 2.546875 -4.671875 C 2.335938 -4.335938 2.234375 -3.8125 2.234375 -3.09375 C 2.234375 -2.363281 2.335938 -1.832031 2.546875 -1.5 C 2.753906 -1.164062 3.070312 -1 3.5 -1 C 3.925781 -1 4.242188 -1.164062 4.453125 -1.5 C 4.660156 -1.832031 4.765625 -2.367188 4.765625 -3.109375 C 4.765625 -3.816406 4.660156 -4.335938 4.453125 -4.671875 C 4.242188 -5.003906 3.925781 -5.171875 3.5 -5.171875 Z M 3.5 -5.171875 "/></g></g></g><g fill="#050a30" fill-opacity="1"><g transform="translate(32.188352, 66.961186)"><g><path d="M 4.5 -8.8125 L 6.078125 -8.65625 L 6.078125 0 L 4.6875 0 L 4.59375 -0.71875 C 4.40625 -0.457031 4.164062 -0.238281 3.875 -0.0625 C 3.582031 0.101562 3.242188 0.1875 2.859375 0.1875 C 2.335938 0.1875 1.90625 0.0507812 1.5625 -0.21875 C 1.226562 -0.5 0.976562 -0.882812 0.8125 -1.375 C 0.644531 -1.875 0.5625 -2.445312 0.5625 -3.09375 C 0.5625 -3.726562 0.660156 -4.289062 0.859375 -4.78125 C 1.054688 -5.269531 1.335938 -5.65625 1.703125 -5.9375 C 2.078125 -6.21875 2.515625 -6.359375 3.015625 -6.359375 C 3.316406 -6.359375 3.59375 -6.304688 3.84375 -6.203125 C 4.09375 -6.097656 4.3125 -5.945312 4.5 -5.75 Z M 3.4375 -5.1875 C 3.0625 -5.1875 2.765625 -5.019531 2.546875 -4.6875 C 2.328125 -4.351562 2.21875 -3.820312 2.21875 -3.09375 C 2.21875 -2.570312 2.257812 -2.160156 2.34375 -1.859375 C 2.4375 -1.554688 2.566406 -1.335938 2.734375 -1.203125 C 2.898438 -1.066406 3.097656 -1 3.328125 -1 C 3.578125 -1 3.796875 -1.070312 3.984375 -1.21875 C 4.179688 -1.375 4.351562 -1.566406 4.5 -1.796875 L 4.5 -4.59375 C 4.363281 -4.78125 4.207031 -4.925781 4.03125 -5.03125 C 3.851562 -5.132812 3.65625 -5.1875 3.4375 -5.1875 Z M 3.4375 -5.1875 "/></g></g></g><g fill="#050a30" fill-opacity="1"><g transform="translate(37.954161, 66.961186)"><g><path d="M 4.5 -6.1875 L 4.5 -1.109375 L 6.125 -1.109375 L 6.125 0 L 1.125 0 L 1.125 -1.109375 L 2.921875 -1.109375 L 2.921875 -5.078125 L 1.1875 -5.078125 L 1.1875 -6.1875 Z M 3.5 -9.3125 C 3.78125 -9.3125 4.007812 -9.222656 4.1875 -9.046875 C 4.375 -8.867188 4.46875 -8.648438 4.46875 -8.390625 C 4.46875 -8.117188 4.375 -7.894531 4.1875 -7.71875 C 4.007812 -7.539062 3.78125 -7.453125 3.5 -7.453125 C 3.207031 -7.453125 2.96875 -7.539062 2.78125 -7.71875 C 2.601562 -7.894531 2.515625 -8.117188 2.515625 -8.390625 C 2.515625 -8.648438 2.601562 -8.867188 2.78125 -9.046875 C 2.96875 -9.222656 3.207031 -9.3125 3.5 -9.3125 Z M 3.5 -9.3125 "/></g></g></g><g fill="#050a30" fill-opacity="1"><g transform="translate(43.719971, 66.961186)"><g><path d="M 0.921875 0 L 0.921875 -6.1875 L 2.296875 -6.1875 L 2.40625 -5.421875 C 2.675781 -5.734375 2.972656 -5.96875 3.296875 -6.125 C 3.628906 -6.28125 3.984375 -6.359375 4.359375 -6.359375 C 4.910156 -6.359375 5.332031 -6.195312 5.625 -5.875 C 5.925781 -5.550781 6.078125 -5.097656 6.078125 -4.515625 L 6.078125 0 L 4.5 0 L 4.5 -3.9375 C 4.5 -4.238281 4.476562 -4.476562 4.4375 -4.65625 C 4.40625 -4.84375 4.332031 -4.976562 4.21875 -5.0625 C 4.113281 -5.144531 3.960938 -5.1875 3.765625 -5.1875 C 3.597656 -5.1875 3.4375 -5.148438 3.28125 -5.078125 C 3.132812 -5.003906 2.992188 -4.90625 2.859375 -4.78125 C 2.734375 -4.664062 2.613281 -4.53125 2.5 -4.375 L 2.5 0 Z M 0.921875 0 "/></g></g></g><g fill="#050a30" fill-opacity="1"><g transform="translate(49.485781, 66.961186)"><g><path d="M 6.28125 -7.0625 L 6.671875 -5.84375 C 6.441406 -5.757812 6.175781 -5.703125 5.875 -5.671875 C 5.582031 -5.640625 5.25 -5.625 4.875 -5.625 C 5.25 -5.457031 5.535156 -5.25 5.734375 -5 C 5.929688 -4.75 6.03125 -4.429688 6.03125 -4.046875 C 6.03125 -3.640625 5.925781 -3.28125 5.71875 -2.96875 C 5.519531 -2.65625 5.226562 -2.40625 4.84375 -2.21875 C 4.46875 -2.039062 4.019531 -1.953125 3.5 -1.953125 C 3.351562 -1.953125 3.21875 -1.957031 3.09375 -1.96875 C 2.96875 -1.988281 2.84375 -2.015625 2.71875 -2.046875 C 2.644531 -2.003906 2.585938 -1.941406 2.546875 -1.859375 C 2.503906 -1.785156 2.484375 -1.703125 2.484375 -1.609375 C 2.484375 -1.503906 2.523438 -1.410156 2.609375 -1.328125 C 2.703125 -1.242188 2.898438 -1.203125 3.203125 -1.203125 L 4.25 -1.203125 C 4.707031 -1.203125 5.109375 -1.125 5.453125 -0.96875 C 5.804688 -0.8125 6.078125 -0.601562 6.265625 -0.34375 C 6.460938 -0.0820312 6.5625 0.210938 6.5625 0.546875 C 6.5625 1.179688 6.289062 1.671875 5.75 2.015625 C 5.207031 2.367188 4.410156 2.546875 3.359375 2.546875 C 2.609375 2.546875 2.023438 2.46875 1.609375 2.3125 C 1.191406 2.164062 0.898438 1.945312 0.734375 1.65625 C 0.566406 1.363281 0.484375 1.007812 0.484375 0.59375 L 1.890625 0.59375 C 1.890625 0.800781 1.925781 0.96875 2 1.09375 C 2.082031 1.21875 2.234375 1.3125 2.453125 1.375 C 2.671875 1.4375 2.984375 1.46875 3.390625 1.46875 C 3.804688 1.46875 4.128906 1.429688 4.359375 1.359375 C 4.585938 1.296875 4.75 1.203125 4.84375 1.078125 C 4.9375 0.960938 4.984375 0.828125 4.984375 0.671875 C 4.984375 0.453125 4.890625 0.28125 4.703125 0.15625 C 4.523438 0.03125 4.269531 -0.03125 3.9375 -0.03125 L 2.921875 -0.03125 C 2.296875 -0.03125 1.835938 -0.148438 1.546875 -0.390625 C 1.253906 -0.640625 1.109375 -0.925781 1.109375 -1.25 C 1.109375 -1.457031 1.164062 -1.660156 1.28125 -1.859375 C 1.40625 -2.066406 1.582031 -2.242188 1.8125 -2.390625 C 1.425781 -2.585938 1.144531 -2.828125 0.96875 -3.109375 C 0.800781 -3.390625 0.71875 -3.734375 0.71875 -4.140625 C 0.71875 -4.585938 0.832031 -4.976562 1.0625 -5.3125 C 1.289062 -5.644531 1.601562 -5.898438 2 -6.078125 C 2.40625 -6.265625 2.867188 -6.359375 3.390625 -6.359375 C 3.867188 -6.347656 4.273438 -6.375 4.609375 -6.4375 C 4.953125 -6.5 5.253906 -6.585938 5.515625 -6.703125 C 5.773438 -6.816406 6.03125 -6.9375 6.28125 -7.0625 Z M 3.421875 -5.3125 C 3.066406 -5.3125 2.796875 -5.203125 2.609375 -4.984375 C 2.421875 -4.773438 2.328125 -4.5 2.328125 -4.15625 C 2.328125 -3.789062 2.421875 -3.5 2.609375 -3.28125 C 2.804688 -3.070312 3.082031 -2.96875 3.4375 -2.96875 C 3.78125 -2.96875 4.039062 -3.070312 4.21875 -3.28125 C 4.40625 -3.488281 4.5 -3.785156 4.5 -4.171875 C 4.5 -4.554688 4.40625 -4.84375 4.21875 -5.03125 C 4.039062 -5.21875 3.773438 -5.3125 3.421875 -5.3125 Z M 3.421875 -5.3125 "/></g></g></g><g fill="#050a30" fill-opacity="1"><g transform="translate(55.25159, 66.961186)"><g/></g></g><g fill="#050a30" fill-opacity="1"><g transform="translate(61.014096, 66.961186)"><g><path d="M 4.1875 -6.125 L 4.1875 -0.625 L 5.96875 -0.625 L 5.96875 0 L 1.53125 0 L 1.53125 -0.625 L 3.46875 -0.625 L 3.46875 -5.5 L 1.59375 -5.5 L 1.59375 -6.125 Z M 3.5 -8.90625 C 3.6875 -8.90625 3.832031 -8.847656 3.9375 -8.734375 C 4.050781 -8.617188 4.109375 -8.484375 4.109375 -8.328125 C 4.109375 -8.148438 4.050781 -8.003906 3.9375 -7.890625 C 3.832031 -7.773438 3.6875 -7.71875 3.5 -7.71875 C 3.332031 -7.71875 3.191406 -7.773438 3.078125 -7.890625 C 2.972656 -8.003906 2.921875 -8.148438 2.921875 -8.328125 C 2.921875 -8.484375 2.972656 -8.617188 3.078125 -8.734375 C 3.191406 -8.847656 3.332031 -8.90625 3.5 -8.90625 Z M 3.5 -8.90625 "/></g></g></g><g fill="#050a30" fill-opacity="1"><g transform="translate(66.779906, 66.961186)"><g><path d="M 5 -8.703125 L 5.71875 -8.609375 L 5.71875 0 L 5.09375 0 L 5 -0.84375 C 4.757812 -0.5 4.488281 -0.253906 4.1875 -0.109375 C 3.882812 0.0351562 3.570312 0.109375 3.25 0.109375 C 2.707031 0.109375 2.257812 -0.0195312 1.90625 -0.28125 C 1.5625 -0.550781 1.304688 -0.921875 1.140625 -1.390625 C 0.972656 -1.867188 0.890625 -2.421875 0.890625 -3.046875 C 0.890625 -3.660156 0.984375 -4.207031 1.171875 -4.6875 C 1.359375 -5.164062 1.628906 -5.539062 1.984375 -5.8125 C 2.347656 -6.09375 2.78125 -6.234375 3.28125 -6.234375 C 3.65625 -6.234375 3.984375 -6.164062 4.265625 -6.03125 C 4.546875 -5.90625 4.789062 -5.71875 5 -5.46875 Z M 3.46875 -5.609375 C 2.894531 -5.609375 2.457031 -5.394531 2.15625 -4.96875 C 1.851562 -4.539062 1.703125 -3.898438 1.703125 -3.046875 C 1.703125 -2.515625 1.765625 -2.054688 1.890625 -1.671875 C 2.015625 -1.296875 2.195312 -1.007812 2.4375 -0.8125 C 2.675781 -0.613281 2.976562 -0.515625 3.34375 -0.515625 C 3.726562 -0.515625 4.054688 -0.625 4.328125 -0.84375 C 4.597656 -1.0625 4.820312 -1.300781 5 -1.5625 L 5 -4.75 C 4.820312 -5.019531 4.597656 -5.226562 4.328125 -5.375 C 4.066406 -5.53125 3.78125 -5.609375 3.46875 -5.609375 Z M 3.46875 -5.609375 "/></g></g></g><g fill="#050a30" fill-opacity="1"><g transform="translate(72.545716, 66.961186)"><g><path d="M 1.796875 -2.765625 C 1.816406 -2.253906 1.910156 -1.832031 2.078125 -1.5 C 2.253906 -1.175781 2.484375 -0.9375 2.765625 -0.78125 C 3.046875 -0.625 3.351562 -0.546875 3.6875 -0.546875 C 4.007812 -0.546875 4.296875 -0.59375 4.546875 -0.6875 C 4.804688 -0.78125 5.070312 -0.921875 5.34375 -1.109375 L 5.71875 -0.578125 C 5.4375 -0.359375 5.117188 -0.1875 4.765625 -0.0625 C 4.410156 0.0507812 4.0625 0.109375 3.71875 0.109375 C 3.15625 0.109375 2.671875 -0.0195312 2.265625 -0.28125 C 1.867188 -0.539062 1.5625 -0.910156 1.34375 -1.390625 C 1.132812 -1.867188 1.03125 -2.425781 1.03125 -3.0625 C 1.03125 -3.675781 1.140625 -4.222656 1.359375 -4.703125 C 1.578125 -5.179688 1.878906 -5.554688 2.265625 -5.828125 C 2.648438 -6.097656 3.097656 -6.234375 3.609375 -6.234375 C 4.109375 -6.234375 4.535156 -6.113281 4.890625 -5.875 C 5.242188 -5.632812 5.515625 -5.289062 5.703125 -4.84375 C 5.890625 -4.40625 5.984375 -3.882812 5.984375 -3.28125 C 5.984375 -3.164062 5.976562 -3.066406 5.96875 -2.984375 C 5.96875 -2.898438 5.96875 -2.828125 5.96875 -2.765625 Z M 3.625 -5.5625 C 3.132812 -5.5625 2.71875 -5.382812 2.375 -5.03125 C 2.039062 -4.6875 1.851562 -4.148438 1.8125 -3.421875 L 5.296875 -3.421875 C 5.285156 -4.140625 5.125 -4.675781 4.8125 -5.03125 C 4.507812 -5.382812 4.113281 -5.5625 3.625 -5.5625 Z M 3.625 -5.5625 "/></g></g></g><g fill="#050a30" fill-opacity="1"><g transform="translate(78.311525, 66.961186)"><g><path d="M 5.4375 -1.203125 C 5.4375 -0.953125 5.476562 -0.769531 5.5625 -0.65625 C 5.65625 -0.539062 5.789062 -0.457031 5.96875 -0.40625 L 5.765625 0.125 C 5.535156 0.0820312 5.328125 -0.00390625 5.140625 -0.140625 C 4.960938 -0.273438 4.832031 -0.484375 4.75 -0.765625 C 4.539062 -0.472656 4.273438 -0.253906 3.953125 -0.109375 C 3.628906 0.0351562 3.265625 0.109375 2.859375 0.109375 C 2.253906 0.109375 1.78125 -0.0546875 1.4375 -0.390625 C 1.09375 -0.734375 0.921875 -1.191406 0.921875 -1.765625 C 0.921875 -2.390625 1.160156 -2.863281 1.640625 -3.1875 C 2.128906 -3.519531 2.835938 -3.6875 3.765625 -3.6875 L 4.6875 -3.6875 L 4.6875 -4.296875 C 4.6875 -4.765625 4.546875 -5.09375 4.265625 -5.28125 C 3.992188 -5.476562 3.625 -5.578125 3.15625 -5.578125 C 2.945312 -5.578125 2.710938 -5.550781 2.453125 -5.5 C 2.191406 -5.457031 1.898438 -5.382812 1.578125 -5.28125 L 1.375 -5.875 C 1.738281 -6.007812 2.070312 -6.101562 2.375 -6.15625 C 2.675781 -6.207031 2.96875 -6.234375 3.25 -6.234375 C 3.976562 -6.234375 4.523438 -6.054688 4.890625 -5.703125 C 5.253906 -5.359375 5.4375 -4.894531 5.4375 -4.3125 Z M 3 -0.46875 C 3.332031 -0.46875 3.644531 -0.546875 3.9375 -0.703125 C 4.238281 -0.867188 4.488281 -1.097656 4.6875 -1.390625 L 4.6875 -3.140625 L 3.671875 -3.140625 C 2.941406 -3.140625 2.429688 -3.007812 2.140625 -2.75 C 1.859375 -2.5 1.71875 -2.164062 1.71875 -1.75 C 1.71875 -1.320312 1.820312 -1 2.03125 -0.78125 C 2.238281 -0.570312 2.5625 -0.46875 3 -0.46875 Z M 3 -0.46875 "/></g></g></g><g fill="#050a30" fill-opacity="1"><g transform="translate(84.077335, 66.961186)"><g><path d="M 3.25 -0.546875 C 3.769531 -0.546875 4.175781 -0.644531 4.46875 -0.84375 C 4.769531 -1.039062 4.921875 -1.304688 4.921875 -1.640625 C 4.921875 -1.835938 4.890625 -2.007812 4.828125 -2.15625 C 4.765625 -2.3125 4.625 -2.445312 4.40625 -2.5625 C 4.195312 -2.6875 3.875 -2.800781 3.4375 -2.90625 C 3 -3.007812 2.617188 -3.125 2.296875 -3.25 C 1.972656 -3.382812 1.722656 -3.5625 1.546875 -3.78125 C 1.378906 -4 1.296875 -4.285156 1.296875 -4.640625 C 1.296875 -4.972656 1.390625 -5.257812 1.578125 -5.5 C 1.773438 -5.738281 2.039062 -5.921875 2.375 -6.046875 C 2.707031 -6.171875 3.085938 -6.234375 3.515625 -6.234375 C 3.992188 -6.234375 4.410156 -6.171875 4.765625 -6.046875 C 5.117188 -5.921875 5.414062 -5.765625 5.65625 -5.578125 L 5.328125 -5.046875 C 5.097656 -5.203125 4.84375 -5.332031 4.5625 -5.4375 C 4.289062 -5.539062 3.941406 -5.59375 3.515625 -5.59375 C 2.972656 -5.59375 2.59375 -5.503906 2.375 -5.328125 C 2.15625 -5.160156 2.046875 -4.945312 2.046875 -4.6875 C 2.046875 -4.488281 2.097656 -4.320312 2.203125 -4.1875 C 2.316406 -4.0625 2.492188 -3.945312 2.734375 -3.84375 C 2.984375 -3.75 3.316406 -3.644531 3.734375 -3.53125 C 4.140625 -3.425781 4.488281 -3.296875 4.78125 -3.140625 C 5.082031 -2.992188 5.316406 -2.800781 5.484375 -2.5625 C 5.648438 -2.332031 5.734375 -2.03125 5.734375 -1.65625 C 5.734375 -1.21875 5.609375 -0.867188 5.359375 -0.609375 C 5.117188 -0.359375 4.804688 -0.175781 4.421875 -0.0625 C 4.046875 0.0507812 3.65625 0.109375 3.25 0.109375 C 2.707031 0.109375 2.25 0.03125 1.875 -0.125 C 1.5 -0.28125 1.191406 -0.46875 0.953125 -0.6875 L 1.40625 -1.21875 C 1.644531 -1.007812 1.921875 -0.84375 2.234375 -0.71875 C 2.546875 -0.601562 2.882812 -0.546875 3.25 -0.546875 Z M 3.25 -0.546875 "/></g></g></g><g fill="#050a30" fill-opacity="1"><g transform="translate(89.843145, 66.961186)"><g/></g></g><g fill="#050a30" fill-opacity="1"><g transform="translate(95.608954, 66.961186)"><g><path d="M 5.953125 -0.296875 C 5.753906 -0.160156 5.507812 -0.0625 5.21875 0 C 4.925781 0.0703125 4.660156 0.109375 4.421875 0.109375 C 3.804688 0.109375 3.320312 -0.0507812 2.96875 -0.375 C 2.625 -0.695312 2.453125 -1.109375 2.453125 -1.609375 L 2.453125 -5.515625 L 1 -5.515625 L 1 -6.125 L 2.453125 -6.125 L 2.453125 -7.546875 L 3.171875 -7.625 L 3.171875 -6.125 L 5.328125 -6.125 L 5.234375 -5.515625 L 3.171875 -5.515625 L 3.171875 -1.625 C 3.171875 -1.269531 3.265625 -0.992188 3.453125 -0.796875 C 3.648438 -0.609375 3.976562 -0.515625 4.4375 -0.515625 C 4.664062 -0.515625 4.878906 -0.539062 5.078125 -0.59375 C 5.273438 -0.644531 5.460938 -0.71875 5.640625 -0.8125 Z M 5.953125 -0.296875 "/></g></g></g><g fill="#050a30" fill-opacity="1"><g transform="translate(101.374762, 66.961186)"><g><path d="M 3.515625 -6.234375 C 4.078125 -6.234375 4.546875 -6.101562 4.921875 -5.84375 C 5.296875 -5.582031 5.570312 -5.210938 5.75 -4.734375 C 5.9375 -4.265625 6.03125 -3.707031 6.03125 -3.0625 C 6.03125 -2.457031 5.9375 -1.914062 5.75 -1.4375 C 5.5625 -0.957031 5.28125 -0.578125 4.90625 -0.296875 C 4.53125 -0.0234375 4.0625 0.109375 3.5 0.109375 C 2.9375 0.109375 2.46875 -0.0195312 2.09375 -0.28125 C 1.71875 -0.550781 1.4375 -0.921875 1.25 -1.390625 C 1.0625 -1.867188 0.96875 -2.421875 0.96875 -3.046875 C 0.96875 -3.671875 1.0625 -4.222656 1.25 -4.703125 C 1.445312 -5.179688 1.734375 -5.554688 2.109375 -5.828125 C 2.484375 -6.097656 2.953125 -6.234375 3.515625 -6.234375 Z M 3.515625 -5.609375 C 2.941406 -5.609375 2.503906 -5.398438 2.203125 -4.984375 C 1.910156 -4.566406 1.765625 -3.921875 1.765625 -3.046875 C 1.765625 -2.203125 1.910156 -1.570312 2.203125 -1.15625 C 2.492188 -0.738281 2.925781 -0.53125 3.5 -0.53125 C 4.070312 -0.53125 4.503906 -0.738281 4.796875 -1.15625 C 5.085938 -1.570312 5.234375 -2.207031 5.234375 -3.0625 C 5.234375 -3.925781 5.085938 -4.566406 4.796875 -4.984375 C 4.515625 -5.398438 4.085938 -5.609375 3.515625 -5.609375 Z M 3.515625 -5.609375 "/></g></g></g><g fill="#050a30" fill-opacity="1"><g transform="translate(107.14057, 66.961186)"><g/></g></g><g fill="#050a30" fill-opacity="1"><g transform="translate(112.906378, 66.961186)"><g><path d="M 5.4375 -1.203125 C 5.4375 -0.953125 5.476562 -0.769531 5.5625 -0.65625 C 5.65625 -0.539062 5.789062 -0.457031 5.96875 -0.40625 L 5.765625 0.125 C 5.535156 0.0820312 5.328125 -0.00390625 5.140625 -0.140625 C 4.960938 -0.273438 4.832031 -0.484375 4.75 -0.765625 C 4.539062 -0.472656 4.273438 -0.253906 3.953125 -0.109375 C 3.628906 0.0351562 3.265625 0.109375 2.859375 0.109375 C 2.253906 0.109375 1.78125 -0.0546875 1.4375 -0.390625 C 1.09375 -0.734375 0.921875 -1.191406 0.921875 -1.765625 C 0.921875 -2.390625 1.160156 -2.863281 1.640625 -3.1875 C 2.128906 -3.519531 2.835938 -3.6875 3.765625 -3.6875 L 4.6875 -3.6875 L 4.6875 -4.296875 C 4.6875 -4.765625 4.546875 -5.09375 4.265625 -5.28125 C 3.992188 -5.476562 3.625 -5.578125 3.15625 -5.578125 C 2.945312 -5.578125 2.710938 -5.550781 2.453125 -5.5 C 2.191406 -5.457031 1.898438 -5.382812 1.578125 -5.28125 L 1.375 -5.875 C 1.738281 -6.007812 2.070312 -6.101562 2.375 -6.15625 C 2.675781 -6.207031 2.96875 -6.234375 3.25 -6.234375 C 3.976562 -6.234375 4.523438 -6.054688 4.890625 -5.703125 C 5.253906 -5.359375 5.4375 -4.894531 5.4375 -4.3125 Z M 3 -0.46875 C 3.332031 -0.46875 3.644531 -0.546875 3.9375 -0.703125 C 4.238281 -0.867188 4.488281 -1.097656 4.6875 -1.390625 L 4.6875 -3.140625 L 3.671875 -3.140625 C 2.941406 -3.140625 2.429688 -3.007812 2.140625 -2.75 C 1.859375 -2.5 1.71875 -2.164062 1.71875 -1.75 C 1.71875 -1.320312 1.820312 -1 2.03125 -0.78125 C 2.238281 -0.570312 2.5625 -0.46875 3 -0.46875 Z M 3 -0.46875 "/></g></g></g><g fill="#050a30" fill-opacity="1"><g transform="translate(118.672187, 66.961186)"><g><path d="M 3.828125 -6.234375 C 4.367188 -6.234375 4.800781 -6.097656 5.125 -5.828125 C 5.445312 -5.566406 5.675781 -5.195312 5.8125 -4.71875 C 5.957031 -4.25 6.03125 -3.695312 6.03125 -3.0625 C 6.03125 -2.445312 5.945312 -1.898438 5.78125 -1.421875 C 5.613281 -0.941406 5.351562 -0.566406 5 -0.296875 C 4.65625 -0.0234375 4.210938 0.109375 3.671875 0.109375 C 2.972656 0.109375 2.414062 -0.128906 2 -0.609375 L 2 2.34375 L 1.28125 2.4375 L 1.28125 -6.125 L 1.875 -6.125 L 1.953125 -5.21875 C 2.171875 -5.53125 2.4375 -5.773438 2.75 -5.953125 C 3.070312 -6.140625 3.429688 -6.234375 3.828125 -6.234375 Z M 3.6875 -5.625 C 3.3125 -5.625 2.976562 -5.507812 2.6875 -5.28125 C 2.40625 -5.050781 2.175781 -4.804688 2 -4.546875 L 2 -1.375 C 2.175781 -1.125 2.398438 -0.921875 2.671875 -0.765625 C 2.941406 -0.617188 3.234375 -0.546875 3.546875 -0.546875 C 4.117188 -0.546875 4.539062 -0.753906 4.8125 -1.171875 C 5.09375 -1.585938 5.234375 -2.222656 5.234375 -3.078125 C 5.234375 -3.617188 5.175781 -4.078125 5.0625 -4.453125 C 4.957031 -4.835938 4.789062 -5.128906 4.5625 -5.328125 C 4.34375 -5.523438 4.050781 -5.625 3.6875 -5.625 Z M 3.6875 -5.625 "/></g></g></g><g fill="#050a30" fill-opacity="1"><g transform="translate(124.437995, 66.961186)"><g><path d="M 3.828125 -6.234375 C 4.367188 -6.234375 4.800781 -6.097656 5.125 -5.828125 C 5.445312 -5.566406 5.675781 -5.195312 5.8125 -4.71875 C 5.957031 -4.25 6.03125 -3.695312 6.03125 -3.0625 C 6.03125 -2.445312 5.945312 -1.898438 5.78125 -1.421875 C 5.613281 -0.941406 5.351562 -0.566406 5 -0.296875 C 4.65625 -0.0234375 4.210938 0.109375 3.671875 0.109375 C 2.972656 0.109375 2.414062 -0.128906 2 -0.609375 L 2 2.34375 L 1.28125 2.4375 L 1.28125 -6.125 L 1.875 -6.125 L 1.953125 -5.21875 C 2.171875 -5.53125 2.4375 -5.773438 2.75 -5.953125 C 3.070312 -6.140625 3.429688 -6.234375 3.828125 -6.234375 Z M 3.6875 -5.625 C 3.3125 -5.625 2.976562 -5.507812 2.6875 -5.28125 C 2.40625 -5.050781 2.175781 -4.804688 2 -4.546875 L 2 -1.375 C 2.175781 -1.125 2.398438 -0.921875 2.671875 -0.765625 C 2.941406 -0.617188 3.234375 -0.546875 3.546875 -0.546875 C 4.117188 -0.546875 4.539062 -0.753906 4.8125 -1.171875 C 5.09375 -1.585938 5.234375 -2.222656 5.234375 -3.078125 C 5.234375 -3.617188 5.175781 -4.078125 5.0625 -4.453125 C 4.957031 -4.835938 4.789062 -5.128906 4.5625 -5.328125 C 4.34375 -5.523438 4.050781 -5.625 3.6875 -5.625 Z M 3.6875 -5.625 "/></g></g></g><g fill="#050a30" fill-opacity="1"><g transform="translate(130.203803, 66.961186)"><g><path d="M 3.25 -0.546875 C 3.769531 -0.546875 4.175781 -0.644531 4.46875 -0.84375 C 4.769531 -1.039062 4.921875 -1.304688 4.921875 -1.640625 C 4.921875 -1.835938 4.890625 -2.007812 4.828125 -2.15625 C 4.765625 -2.3125 4.625 -2.445312 4.40625 -2.5625 C 4.195312 -2.6875 3.875 -2.800781 3.4375 -2.90625 C 3 -3.007812 2.617188 -3.125 2.296875 -3.25 C 1.972656 -3.382812 1.722656 -3.5625 1.546875 -3.78125 C 1.378906 -4 1.296875 -4.285156 1.296875 -4.640625 C 1.296875 -4.972656 1.390625 -5.257812 1.578125 -5.5 C 1.773438 -5.738281 2.039062 -5.921875 2.375 -6.046875 C 2.707031 -6.171875 3.085938 -6.234375 3.515625 -6.234375 C 3.992188 -6.234375 4.410156 -6.171875 4.765625 -6.046875 C 5.117188 -5.921875 5.414062 -5.765625 5.65625 -5.578125 L 5.328125 -5.046875 C 5.097656 -5.203125 4.84375 -5.332031 4.5625 -5.4375 C 4.289062 -5.539062 3.941406 -5.59375 3.515625 -5.59375 C 2.972656 -5.59375 2.59375 -5.503906 2.375 -5.328125 C 2.15625 -5.160156 2.046875 -4.945312 2.046875 -4.6875 C 2.046875 -4.488281 2.097656 -4.320312 2.203125 -4.1875 C 2.316406 -4.0625 2.492188 -3.945312 2.734375 -3.84375 C 2.984375 -3.75 3.316406 -3.644531 3.734375 -3.53125 C 4.140625 -3.425781 4.488281 -3.296875 4.78125 -3.140625 C 5.082031 -2.992188 5.316406 -2.800781 5.484375 -2.5625 C 5.648438 -2.332031 5.734375 -2.03125 5.734375 -1.65625 C 5.734375 -1.21875 5.609375 -0.867188 5.359375 -0.609375 C 5.117188 -0.359375 4.804688 -0.175781 4.421875 -0.0625 C 4.046875 0.0507812 3.65625 0.109375 3.25 0.109375 C 2.707031 0.109375 2.25 0.03125 1.875 -0.125 C 1.5 -0.28125 1.191406 -0.46875 0.953125 -0.6875 L 1.40625 -1.21875 C 1.644531 -1.007812 1.921875 -0.84375 2.234375 -0.71875 C 2.546875 -0.601562 2.882812 -0.546875 3.25 -0.546875 Z M 3.25 -0.546875 "/></g></g></g><g fill="#050a30" fill-opacity="1"><g transform="translate(7.014768, 37.03555)"><g><path d="M 9.828125 -23.84375 L 9.828125 -16.265625 L 19.75 -16.265625 L 19.75 -12.15625 L 9.828125 -12.15625 L 9.828125 -4.140625 L 21.859375 -4.140625 L 21.859375 0 L 4.171875 0 L 4.171875 -27.984375 L 21.734375 -27.984375 L 21.140625 -23.84375 Z M 9.828125 -23.84375 "/></g></g></g><g fill="#050a30" fill-opacity="1"><g transform="translate(28.902002, 37.03555)"><g><path d="M 15.625 -21.421875 L 15.625 -3.84375 L 21.25 -3.84375 L 21.25 0 L 3.921875 0 L 3.921875 -3.84375 L 10.15625 -3.84375 L 10.15625 -17.578125 L 4.125 -17.578125 L 4.125 -21.421875 Z M 12.125 -32.296875 C 13.125 -32.296875 13.929688 -31.984375 14.546875 -31.359375 C 15.171875 -30.742188 15.484375 -29.984375 15.484375 -29.078125 C 15.484375 -28.148438 15.171875 -27.375 14.546875 -26.75 C 13.929688 -26.125 13.125 -25.8125 12.125 -25.8125 C 11.125 -25.8125 10.304688 -26.125 9.671875 -26.75 C 9.046875 -27.375 8.734375 -28.148438 8.734375 -29.078125 C 8.734375 -29.984375 9.046875 -30.742188 9.671875 -31.359375 C 10.304688 -31.984375 11.125 -32.296875 12.125 -32.296875 Z M 12.125 -32.296875 "/></g></g></g><g fill="#050a30" fill-opacity="1"><g transform="translate(50.789237, 37.03555)"><g><path d="M 21.8125 -1.1875 C 21 -0.675781 20.019531 -0.25 18.875 0.09375 C 17.738281 0.445312 16.503906 0.625 15.171875 0.625 C 12.523438 0.625 10.539062 -0.0546875 9.21875 -1.421875 C 7.90625 -2.796875 7.25 -4.625 7.25 -6.90625 L 7.25 -17.5625 L 2.609375 -17.5625 L 2.609375 -21.421875 L 7.25 -21.421875 L 7.25 -26.140625 L 12.703125 -26.796875 L 12.703125 -21.421875 L 19.75 -21.421875 L 19.203125 -17.5625 L 12.703125 -17.5625 L 12.703125 -6.921875 C 12.703125 -5.816406 12.960938 -5.007812 13.484375 -4.5 C 14.015625 -4 14.875 -3.75 16.0625 -3.75 C 16.832031 -3.75 17.535156 -3.835938 18.171875 -4.015625 C 18.816406 -4.203125 19.40625 -4.4375 19.9375 -4.71875 Z M 21.8125 -1.1875 "/></g></g></g><g fill="#050a30" fill-opacity="1"><g transform="translate(72.676472, 37.03555)"><g><path d="M 20.4375 -5.703125 C 20.4375 -4.878906 20.550781 -4.28125 20.78125 -3.90625 C 21.019531 -3.539062 21.40625 -3.265625 21.9375 -3.078125 L 20.78125 0.5625 C 19.625 0.445312 18.632812 0.164062 17.8125 -0.28125 C 17 -0.726562 16.375 -1.410156 15.9375 -2.328125 C 15.132812 -1.335938 14.109375 -0.597656 12.859375 -0.109375 C 11.617188 0.378906 10.328125 0.625 8.984375 0.625 C 6.796875 0.625 5.054688 0.00390625 3.765625 -1.234375 C 2.484375 -2.484375 1.84375 -4.101562 1.84375 -6.09375 C 1.84375 -8.382812 2.738281 -10.144531 4.53125 -11.375 C 6.320312 -12.613281 8.863281 -13.234375 12.15625 -13.234375 L 15.109375 -13.234375 L 15.109375 -14.34375 C 15.109375 -15.601562 14.71875 -16.515625 13.9375 -17.078125 C 13.164062 -17.640625 12.0625 -17.921875 10.625 -17.921875 C 9.925781 -17.921875 9.054688 -17.828125 8.015625 -17.640625 C 6.984375 -17.453125 5.925781 -17.175781 4.84375 -16.8125 L 3.546875 -20.53125 C 4.898438 -21.050781 6.273438 -21.4375 7.671875 -21.6875 C 9.066406 -21.9375 10.332031 -22.0625 11.46875 -22.0625 C 14.507812 -22.0625 16.765625 -21.414062 18.234375 -20.125 C 19.703125 -18.84375 20.4375 -17.03125 20.4375 -14.6875 Z M 10.765625 -3.34375 C 11.578125 -3.34375 12.390625 -3.5625 13.203125 -4 C 14.015625 -4.445312 14.648438 -5.082031 15.109375 -5.90625 L 15.109375 -10.015625 L 13.078125 -10.015625 C 11.117188 -10.015625 9.703125 -9.703125 8.828125 -9.078125 C 7.960938 -8.453125 7.53125 -7.554688 7.53125 -6.390625 C 7.53125 -5.421875 7.804688 -4.671875 8.359375 -4.140625 C 8.910156 -3.609375 9.710938 -3.34375 10.765625 -3.34375 Z M 10.765625 -3.34375 "/></g></g></g><g fill="#050a30" fill-opacity="1"><g transform="translate(94.563706, 37.03555)"><g><path d="M 3.21875 0 L 3.21875 -21.421875 L 7.96875 -21.421875 L 8.359375 -18.796875 C 9.285156 -19.878906 10.316406 -20.691406 11.453125 -21.234375 C 12.585938 -21.785156 13.816406 -22.0625 15.140625 -22.0625 C 17.054688 -22.0625 18.523438 -21.503906 19.546875 -20.390625 C 20.566406 -19.273438 21.078125 -17.707031 21.078125 -15.6875 L 21.078125 0 L 15.625 0 L 15.625 -13.640625 C 15.625 -14.691406 15.554688 -15.535156 15.421875 -16.171875 C 15.285156 -16.816406 15.03125 -17.273438 14.65625 -17.546875 C 14.289062 -17.828125 13.753906 -17.96875 13.046875 -17.96875 C 12.484375 -17.96875 11.941406 -17.84375 11.421875 -17.59375 C 10.898438 -17.351562 10.410156 -17.019531 9.953125 -16.59375 C 9.492188 -16.175781 9.070312 -15.703125 8.6875 -15.171875 L 8.6875 0 Z M 3.21875 0 "/></g></g></g><path fill="#050a30" d="M 39.207031 12.777344 C 38.96875 12.777344 38.777344 12.570312 38.777344 12.316406 C 38.777344 12.0625 38.96875 11.855469 39.207031 11.855469 L 42.285156 11.855469 C 42.519531 11.855469 42.710938 12.0625 42.710938 12.316406 C 42.710938 12.570312 42.519531 12.777344 42.285156 12.777344 L 39.207031 12.777344 " fill-opacity="1" fill-rule="nonzero"/><path fill="#050a30" d="M 42.285156 11.648438 L 39.207031 11.648438 C 38.855469 11.648438 38.570312 11.949219 38.570312 12.316406 C 38.570312 12.683594 38.855469 12.980469 39.207031 12.980469 L 42.285156 12.980469 C 42.632812 12.980469 42.917969 12.683594 42.917969 12.316406 C 42.917969 11.949219 42.632812 11.648438 42.285156 11.648438 Z M 42.285156 12.0625 C 42.40625 12.0625 42.503906 12.175781 42.503906 12.316406 C 42.503906 12.457031 42.40625 12.570312 42.285156 12.570312 L 39.207031 12.570312 C 39.082031 12.570312 38.984375 12.457031 38.984375 12.316406 C 38.984375 12.175781 39.082031 12.0625 39.207031 12.0625 L 42.285156 12.0625 " fill-opacity="1" fill-rule="nonzero"/><g clip-path="url(#1b3944e8a6)"><path fill="#050a30" d="M 40.921875 14.464844 C 40.558594 14.464844 40.132812 14.417969 40.050781 14.394531 C 39.953125 14.367188 39.835938 14.257812 39.699219 14.078125 C 39.695312 14.066406 39.6875 14.054688 39.683594 14.046875 L 39.40625 13.488281 L 39.207031 13.488281 C 38.96875 13.488281 38.777344 13.28125 38.777344 13.027344 C 38.777344 12.773438 38.96875 12.566406 39.207031 12.566406 L 42.285156 12.566406 C 42.519531 12.566406 42.710938 12.773438 42.710938 13.027344 C 42.710938 13.28125 42.519531 13.488281 42.285156 13.488281 L 42.160156 13.488281 C 42.070312 13.65625 41.9375 13.902344 41.871094 14.03125 C 41.742188 14.285156 41.566406 14.367188 41.507812 14.386719 C 41.382812 14.441406 41.191406 14.464844 40.921875 14.464844 " fill-opacity="1" fill-rule="nonzero"/><path fill="#050a30" d="M 42.285156 12.359375 L 39.207031 12.359375 C 38.855469 12.359375 38.570312 12.65625 38.570312 13.027344 C 38.570312 13.394531 38.855469 13.691406 39.207031 13.691406 L 39.277344 13.691406 L 39.496094 14.136719 C 39.507812 14.160156 39.519531 14.179688 39.535156 14.199219 C 39.777344 14.53125 39.9375 14.574219 39.996094 14.59375 C 40.121094 14.628906 40.578125 14.671875 40.921875 14.671875 C 41.21875 14.671875 41.429688 14.640625 41.582031 14.582031 C 41.679688 14.542969 41.894531 14.433594 42.054688 14.128906 C 42.109375 14.023438 42.203125 13.84375 42.285156 13.691406 C 42.632812 13.691406 42.917969 13.394531 42.917969 13.027344 C 42.917969 12.65625 42.632812 12.359375 42.285156 12.359375 Z M 42.285156 12.769531 C 42.40625 12.769531 42.503906 12.886719 42.503906 13.027344 C 42.503906 13.164062 42.40625 13.28125 42.285156 13.28125 L 42.039062 13.28125 C 41.957031 13.433594 41.773438 13.773438 41.6875 13.9375 C 41.574219 14.15625 41.433594 14.195312 41.433594 14.195312 C 41.324219 14.242188 41.128906 14.257812 40.921875 14.257812 C 40.5625 14.257812 40.160156 14.210938 40.109375 14.195312 C 40.027344 14.171875 39.867188 13.953125 39.867188 13.953125 L 39.535156 13.28125 L 39.207031 13.28125 C 39.082031 13.28125 38.984375 13.164062 38.984375 13.027344 C 38.984375 12.886719 39.082031 12.769531 39.207031 12.769531 L 42.285156 12.769531 " fill-opacity="1" fill-rule="nonzero"/></g><path fill="#050a30" d="M 39.207031 12.066406 C 38.96875 12.066406 38.777344 11.859375 38.777344 11.605469 C 38.777344 11.351562 38.96875 11.144531 39.207031 11.144531 L 42.285156 11.144531 C 42.519531 11.144531 42.710938 11.351562 42.710938 11.605469 C 42.710938 11.859375 42.519531 12.066406 42.285156 12.066406 L 39.207031 12.066406 " fill-opacity="1" fill-rule="nonzero"/><path fill="#050a30" d="M 42.285156 10.9375 L 39.207031 10.9375 C 38.855469 10.9375 38.570312 11.238281 38.570312 11.605469 C 38.570312 11.972656 38.855469 12.273438 39.207031 12.273438 L 42.285156 12.273438 C 42.632812 12.273438 42.917969 11.972656 42.917969 11.605469 C 42.917969 11.238281 42.632812 10.9375 42.285156 10.9375 Z M 42.285156 11.351562 C 42.40625 11.351562 42.503906 11.464844 42.503906 11.605469 C 42.503906 11.746094 42.40625 11.859375 42.285156 11.859375 L 39.207031 11.859375 C 39.082031 11.859375 38.984375 11.746094 38.984375 11.605469 C 38.984375 11.464844 39.082031 11.351562 39.207031 11.351562 L 42.285156 11.351562 " fill-opacity="1" fill-rule="nonzero"/><g clip-path="url(#e12bbd2f67)"><path fill="#050a30" d="M 39.253906 11.386719 C 39.003906 11.386719 38.800781 11.183594 38.800781 10.933594 L 38.800781 10.257812 C 37.332031 9.523438 36.390625 8.007812 36.390625 6.363281 C 36.390625 3.960938 38.34375 2.007812 40.746094 2.007812 C 43.144531 2.007812 45.097656 3.960938 45.097656 6.363281 C 45.097656 8.007812 44.15625 9.523438 42.6875 10.257812 L 42.6875 10.933594 C 42.6875 11.183594 42.484375 11.386719 42.238281 11.386719 L 39.253906 11.386719 " fill-opacity="1" fill-rule="nonzero"/></g><g clip-path="url(#6c3b50de78)"><path fill="#050a30" d="M 40.746094 1.800781 C 39.527344 1.800781 38.382812 2.277344 37.519531 3.136719 C 36.660156 4 36.183594 5.144531 36.183594 6.363281 C 36.183594 7.25 36.441406 8.109375 36.925781 8.851562 C 37.34375 9.496094 37.917969 10.023438 38.59375 10.382812 L 38.59375 10.933594 C 38.59375 11.296875 38.890625 11.589844 39.253906 11.589844 L 42.238281 11.589844 C 42.597656 11.589844 42.894531 11.296875 42.894531 10.933594 L 42.894531 10.382812 C 43.570312 10.023438 44.144531 9.496094 44.566406 8.851562 C 45.050781 8.109375 45.304688 7.25 45.304688 6.363281 C 45.304688 5.144531 44.828125 4 43.96875 3.136719 C 43.109375 2.277344 41.960938 1.800781 40.746094 1.800781 Z M 40.746094 2.214844 C 43.035156 2.214844 44.890625 4.070312 44.890625 6.363281 C 44.890625 8.03125 43.90625 9.46875 42.480469 10.128906 L 42.480469 10.933594 C 42.480469 11.070312 42.371094 11.179688 42.238281 11.179688 L 39.253906 11.179688 C 39.117188 11.179688 39.007812 11.070312 39.007812 10.933594 L 39.007812 10.128906 C 37.585938 9.46875 36.597656 8.03125 36.597656 6.363281 C 36.597656 4.070312 38.453125 2.214844 40.746094 2.214844 " fill-opacity="1" fill-rule="nonzero"/></g><path fill="#393536" d="M 42.285156 12.046875 L 39.207031 12.046875 C 39.082031 12.046875 38.984375 12.160156 38.984375 12.300781 C 38.984375 12.441406 39.082031 12.554688 39.207031 12.554688 L 42.285156 12.554688 C 42.40625 12.554688 42.503906 12.441406 42.503906 12.300781 C 42.503906 12.160156 42.40625 12.046875 42.285156 12.046875 " fill-opacity="1" fill-rule="nonzero"/><g clip-path="url(#93453d28f3)"><path fill="#393536" d="M 42.285156 12.757812 L 39.207031 12.757812 C 39.082031 12.757812 38.984375 12.871094 38.984375 13.011719 C 38.984375 13.152344 39.082031 13.265625 39.207031 13.265625 L 39.535156 13.265625 L 39.867188 13.941406 C 39.867188 13.941406 40.027344 14.160156 40.109375 14.183594 C 40.191406 14.207031 41.140625 14.3125 41.433594 14.183594 C 41.433594 14.183594 41.574219 14.140625 41.6875 13.925781 C 41.773438 13.757812 41.957031 13.417969 42.039062 13.265625 L 42.285156 13.265625 C 42.40625 13.265625 42.503906 13.152344 42.503906 13.011719 C 42.503906 12.871094 42.40625 12.757812 42.285156 12.757812 " fill-opacity="1" fill-rule="nonzero"/></g><path fill="#393536" d="M 42.285156 11.339844 L 39.207031 11.339844 C 39.082031 11.339844 38.984375 11.453125 38.984375 11.59375 C 38.984375 11.734375 39.082031 11.847656 39.207031 11.847656 L 42.285156 11.847656 C 42.40625 11.847656 42.503906 11.734375 42.503906 11.59375 C 42.503906 11.453125 42.40625 11.339844 42.285156 11.339844 " fill-opacity="1" fill-rule="nonzero"/><path fill="#c8f023" d="M 43.910156 6.25 C 43.910156 6.25 42.164062 6.613281 42.046875 8.238281 C 42.066406 8.207031 42.113281 8.273438 42.113281 8.273438 C 42.164062 7.777344 42.445312 6.742188 43.910156 6.25 " fill-opacity="1" fill-rule="nonzero"/><path fill="#c8f023" d="M 37.484375 5.125 C 40.105469 5.710938 40.773438 7.457031 40.941406 8.308594 C 40.941406 8.308594 40.992188 8.289062 41.050781 8.230469 C 40.566406 5.445312 37.484375 5.125 37.484375 5.125 " fill-opacity="1" fill-rule="nonzero"/><g clip-path="url(#796e810b96)"><path fill="#c8f023" d="M 43.554688 7.414062 C 43.554688 7.777344 43.304688 8.828125 42.152344 8.292969 C 42.140625 8.289062 42.125 8.28125 42.113281 8.273438 C 41.726562 8.757812 41.59375 9.433594 41.550781 9.78125 C 41.5625 9.957031 41.539062 10.507812 41.53125 10.71875 C 41.53125 10.71875 41.253906 10.832031 40.941406 10.695312 C 40.941406 10.695312 41.535156 9.570312 40.941406 8.308594 C 40.921875 8.320312 40.902344 8.335938 40.882812 8.347656 C 38.984375 9.46875 38.363281 7.699219 38.300781 7.070312 C 38.207031 6.132812 37.230469 5.023438 37.230469 5.023438 C 37.230469 5.023438 40.113281 4.648438 41.09375 5.949219 C 41.972656 7.109375 41.523438 7.867188 41.050781 8.230469 C 41.050781 8.230469 41.304688 8.511719 41.453125 9.148438 C 41.625 8.617188 42.046875 8.238281 42.046875 8.238281 C 41.753906 8.054688 41.457031 7.648438 41.890625 6.933594 C 42.378906 6.132812 44.050781 6.179688 44.050781 6.179688 C 44.050781 6.179688 43.554688 6.871094 43.554688 7.414062 Z M 40.746094 2.199219 C 38.453125 2.199219 36.597656 4.058594 36.597656 6.347656 C 36.597656 8.019531 37.585938 9.457031 39.007812 10.113281 L 39.007812 10.921875 C 39.007812 11.054688 39.117188 11.164062 39.253906 11.164062 L 42.238281 11.164062 C 42.371094 11.164062 42.480469 11.054688 42.480469 10.921875 L 42.480469 10.113281 C 43.90625 9.457031 44.890625 8.019531 44.890625 6.347656 C 44.890625 4.058594 43.035156 2.199219 40.746094 2.199219 " fill-opacity="1" fill-rule="nonzero"/></g><g fill="#050a30" fill-opacity="1"><g transform="translate(18.632389, 55.801451)"><g><path d="M 11.78125 -5.078125 C 11.78125 -5.992188 11.597656 -6.695312 11.234375 -7.1875 C 10.878906 -7.6875 10.410156 -8.03125 9.828125 -8.21875 C 9.242188 -8.414062 8.597656 -8.515625 7.890625 -8.515625 L 4.8125 -8.515625 L 4.8125 -1.875 L 7.796875 -1.875 C 8.242188 -1.875 8.695312 -1.914062 9.15625 -2 C 9.625 -2.09375 10.054688 -2.253906 10.453125 -2.484375 C 10.847656 -2.710938 11.164062 -3.035156 11.40625 -3.453125 C 11.65625 -3.867188 11.78125 -4.410156 11.78125 -5.078125 Z M 11.046875 -13.421875 C 11.046875 -14.441406 10.726562 -15.164062 10.09375 -15.59375 C 9.457031 -16.03125 8.59375 -16.25 7.5 -16.25 L 4.8125 -16.25 L 4.8125 -10.390625 L 7.734375 -10.390625 C 8.796875 -10.390625 9.613281 -10.628906 10.1875 -11.109375 C 10.757812 -11.585938 11.046875 -12.359375 11.046875 -13.421875 Z M 14.171875 -5.171875 C 14.171875 -4.179688 13.976562 -3.351562 13.59375 -2.6875 C 13.207031 -2.019531 12.6875 -1.488281 12.03125 -1.09375 C 11.375 -0.707031 10.644531 -0.425781 9.84375 -0.25 C 9.039062 -0.0820312 8.222656 0 7.390625 0 L 2.53125 0 L 2.53125 -18.09375 L 6.984375 -18.09375 C 7.785156 -18.09375 8.5625 -18.019531 9.3125 -17.875 C 10.070312 -17.726562 10.753906 -17.484375 11.359375 -17.140625 C 11.972656 -16.796875 12.460938 -16.328125 12.828125 -15.734375 C 13.203125 -15.148438 13.390625 -14.414062 13.390625 -13.53125 C 13.390625 -12.75 13.226562 -12.085938 12.90625 -11.546875 C 12.59375 -11.015625 12.175781 -10.585938 11.65625 -10.265625 C 11.144531 -9.941406 10.601562 -9.710938 10.03125 -9.578125 C 10.695312 -9.472656 11.347656 -9.269531 11.984375 -8.96875 C 12.617188 -8.664062 13.140625 -8.207031 13.546875 -7.59375 C 13.960938 -6.988281 14.171875 -6.179688 14.171875 -5.171875 Z M 14.171875 -5.171875 "/></g></g></g><g fill="#050a30" fill-opacity="1"><g transform="translate(32.008233, 55.801451)"><g><path d="M 4.375 -6.140625 C 4.414062 -5.066406 4.617188 -4.191406 4.984375 -3.515625 C 5.359375 -2.835938 5.847656 -2.335938 6.453125 -2.015625 C 7.054688 -1.691406 7.710938 -1.53125 8.421875 -1.53125 C 9.128906 -1.53125 9.769531 -1.632812 10.34375 -1.84375 C 10.914062 -2.0625 11.503906 -2.375 12.109375 -2.78125 L 13.15625 -1.328125 C 12.507812 -0.816406 11.769531 -0.414062 10.9375 -0.125 C 10.113281 0.15625 9.265625 0.296875 8.390625 0.296875 C 7.054688 0.296875 5.914062 -0.00390625 4.96875 -0.609375 C 4.019531 -1.210938 3.296875 -2.050781 2.796875 -3.125 C 2.304688 -4.207031 2.0625 -5.46875 2.0625 -6.90625 C 2.0625 -8.300781 2.3125 -9.539062 2.8125 -10.625 C 3.3125 -11.71875 4.007812 -12.570312 4.90625 -13.1875 C 5.8125 -13.8125 6.878906 -14.125 8.109375 -14.125 C 9.273438 -14.125 10.273438 -13.847656 11.109375 -13.296875 C 11.953125 -12.753906 12.597656 -11.976562 13.046875 -10.96875 C 13.503906 -9.957031 13.734375 -8.75 13.734375 -7.34375 C 13.734375 -7.101562 13.726562 -6.878906 13.71875 -6.671875 C 13.707031 -6.472656 13.691406 -6.296875 13.671875 -6.140625 Z M 8.140625 -12.3125 C 7.109375 -12.3125 6.25 -11.945312 5.5625 -11.21875 C 4.875 -10.488281 4.484375 -9.363281 4.390625 -7.84375 L 11.609375 -7.84375 C 11.578125 -9.320312 11.25 -10.4375 10.625 -11.1875 C 10.007812 -11.9375 9.179688 -12.3125 8.140625 -12.3125 Z M 8.140625 -12.3125 "/></g></g></g><g fill="#050a30" fill-opacity="1"><g transform="translate(45.38408, 55.801451)"><g><path d="M 2.765625 0 L 2.765625 -1.6875 L 4.921875 -1.6875 L 4.921875 -12.140625 L 2.765625 -12.140625 L 2.765625 -13.84375 L 6.609375 -13.84375 L 7.015625 -10.5625 C 7.546875 -11.695312 8.191406 -12.578125 8.953125 -13.203125 C 9.722656 -13.828125 10.734375 -14.140625 11.984375 -14.140625 C 12.367188 -14.140625 12.710938 -14.109375 13.015625 -14.046875 C 13.316406 -13.992188 13.625 -13.925781 13.9375 -13.84375 L 13.296875 -11.859375 C 13.003906 -11.941406 12.738281 -12.003906 12.5 -12.046875 C 12.269531 -12.085938 12 -12.109375 11.6875 -12.109375 C 10.632812 -12.109375 9.722656 -11.726562 8.953125 -10.96875 C 8.191406 -10.21875 7.585938 -9.082031 7.140625 -7.5625 L 7.140625 -1.6875 L 9.953125 -1.6875 L 9.953125 0 Z M 11.8125 -9.15625 L 11.8125 -12.171875 L 12.03125 -13.84375 L 13.9375 -13.84375 L 13.625 -9.15625 Z M 11.8125 -9.15625 "/></g></g></g><g fill="#050a30" fill-opacity="1"><g transform="translate(58.759929, 55.801451)"><g><path d="M 7.34375 -1.53125 C 8.40625 -1.53125 9.242188 -1.726562 9.859375 -2.125 C 10.472656 -2.519531 10.78125 -3.050781 10.78125 -3.71875 C 10.78125 -4.132812 10.703125 -4.492188 10.546875 -4.796875 C 10.398438 -5.109375 10.085938 -5.382812 9.609375 -5.625 C 9.140625 -5.875 8.414062 -6.125 7.4375 -6.375 C 6.476562 -6.613281 5.644531 -6.882812 4.9375 -7.1875 C 4.238281 -7.5 3.691406 -7.90625 3.296875 -8.40625 C 2.910156 -8.90625 2.71875 -9.554688 2.71875 -10.359375 C 2.71875 -11.140625 2.9375 -11.8125 3.375 -12.375 C 3.820312 -12.9375 4.4375 -13.367188 5.21875 -13.671875 C 6.007812 -13.972656 6.925781 -14.125 7.96875 -14.125 C 9.082031 -14.125 10.050781 -13.976562 10.875 -13.6875 C 11.707031 -13.394531 12.414062 -13.035156 13 -12.609375 L 12.03125 -11.109375 C 11.5 -11.460938 10.914062 -11.753906 10.28125 -11.984375 C 9.65625 -12.222656 8.894531 -12.34375 8 -12.34375 C 6.914062 -12.34375 6.144531 -12.171875 5.6875 -11.828125 C 5.226562 -11.492188 5 -11.0625 5 -10.53125 C 5 -10.125 5.109375 -9.785156 5.328125 -9.515625 C 5.554688 -9.253906 5.9375 -9.015625 6.46875 -8.796875 C 7.007812 -8.578125 7.75 -8.34375 8.6875 -8.09375 C 9.59375 -7.851562 10.378906 -7.566406 11.046875 -7.234375 C 11.710938 -6.898438 12.234375 -6.460938 12.609375 -5.921875 C 12.992188 -5.378906 13.1875 -4.679688 13.1875 -3.828125 C 13.1875 -2.847656 12.90625 -2.050781 12.34375 -1.4375 C 11.78125 -0.832031 11.050781 -0.390625 10.15625 -0.109375 C 9.269531 0.160156 8.332031 0.296875 7.34375 0.296875 C 6.09375 0.296875 5.023438 0.117188 4.140625 -0.234375 C 3.265625 -0.597656 2.53125 -1.039062 1.9375 -1.5625 L 3.1875 -3.015625 C 3.738281 -2.578125 4.363281 -2.21875 5.0625 -1.9375 C 5.769531 -1.664062 6.53125 -1.53125 7.34375 -1.53125 Z M 7.34375 -1.53125 "/></g></g></g><g fill="#050a30" fill-opacity="1"><g transform="translate(72.135778, 55.801451)"><g><path d="M 4.84375 -19.625 L 4.84375 -11.9375 C 5.382812 -12.664062 6.050781 -13.210938 6.84375 -13.578125 C 7.644531 -13.941406 8.453125 -14.125 9.265625 -14.125 C 10.609375 -14.125 11.59375 -13.765625 12.21875 -13.046875 C 12.84375 -12.328125 13.15625 -11.328125 13.15625 -10.046875 L 13.15625 0 L 10.953125 0 L 10.953125 -10 C 10.953125 -10.832031 10.757812 -11.4375 10.375 -11.8125 C 9.988281 -12.195312 9.378906 -12.390625 8.546875 -12.390625 C 8.023438 -12.390625 7.523438 -12.269531 7.046875 -12.03125 C 6.578125 -11.800781 6.15625 -11.507812 5.78125 -11.15625 C 5.40625 -10.800781 5.09375 -10.441406 4.84375 -10.078125 L 4.84375 0 L 2.640625 0 L 2.640625 -19.375 Z M 4.84375 -19.625 "/></g></g></g><g fill="#050a30" fill-opacity="1"><g transform="translate(85.511625, 55.801451)"><g><path d="M 13.625 -0.703125 C 13.15625 -0.378906 12.582031 -0.132812 11.90625 0.03125 C 11.226562 0.207031 10.566406 0.296875 9.921875 0.296875 C 8.429688 0.296875 7.28125 -0.0859375 6.46875 -0.859375 C 5.664062 -1.640625 5.265625 -2.644531 5.265625 -3.875 L 5.265625 -12.125 L 2.09375 -12.125 L 2.09375 -13.84375 L 5.265625 -13.84375 L 5.265625 -16.984375 L 7.484375 -17.234375 L 7.484375 -13.84375 L 12.265625 -13.84375 L 12 -12.125 L 7.484375 -12.125 L 7.484375 -3.90625 C 7.484375 -3.132812 7.6875 -2.546875 8.09375 -2.140625 C 8.5 -1.734375 9.175781 -1.53125 10.125 -1.53125 C 10.632812 -1.53125 11.109375 -1.59375 11.546875 -1.71875 C 11.984375 -1.84375 12.390625 -2 12.765625 -2.1875 Z M 13.625 -0.703125 "/></g></g></g><g fill="#050a30" fill-opacity="1"><g transform="translate(98.887463, 55.801451)"><g><path d="M 4.375 -6.140625 C 4.414062 -5.066406 4.617188 -4.191406 4.984375 -3.515625 C 5.359375 -2.835938 5.847656 -2.335938 6.453125 -2.015625 C 7.054688 -1.691406 7.710938 -1.53125 8.421875 -1.53125 C 9.128906 -1.53125 9.769531 -1.632812 10.34375 -1.84375 C 10.914062 -2.0625 11.503906 -2.375 12.109375 -2.78125 L 13.15625 -1.328125 C 12.507812 -0.816406 11.769531 -0.414062 10.9375 -0.125 C 10.113281 0.15625 9.265625 0.296875 8.390625 0.296875 C 7.054688 0.296875 5.914062 -0.00390625 4.96875 -0.609375 C 4.019531 -1.210938 3.296875 -2.050781 2.796875 -3.125 C 2.304688 -4.207031 2.0625 -5.46875 2.0625 -6.90625 C 2.0625 -8.300781 2.3125 -9.539062 2.8125 -10.625 C 3.3125 -11.71875 4.007812 -12.570312 4.90625 -13.1875 C 5.8125 -13.8125 6.878906 -14.125 8.109375 -14.125 C 9.273438 -14.125 10.273438 -13.847656 11.109375 -13.296875 C 11.953125 -12.753906 12.597656 -11.976562 13.046875 -10.96875 C 13.503906 -9.957031 13.734375 -8.75 13.734375 -7.34375 C 13.734375 -7.101562 13.726562 -6.878906 13.71875 -6.671875 C 13.707031 -6.472656 13.691406 -6.296875 13.671875 -6.140625 Z M 8.140625 -12.3125 C 7.109375 -12.3125 6.25 -11.945312 5.5625 -11.21875 C 4.875 -10.488281 4.484375 -9.363281 4.390625 -7.84375 L 11.609375 -7.84375 C 11.578125 -9.320312 11.25 -10.4375 10.625 -11.1875 C 10.007812 -11.9375 9.179688 -12.3125 8.140625 -12.3125 Z M 8.140625 -12.3125 "/></g></g></g><g fill="#050a30" fill-opacity="1"><g transform="translate(112.263317, 55.801451)"><g><path d="M 9.640625 -13.84375 L 9.640625 -1.75 L 13.546875 -1.75 L 13.546875 0 L 3.171875 0 L 3.171875 -1.75 L 7.4375 -1.75 L 7.4375 -12.09375 L 3.296875 -12.09375 L 3.296875 -13.84375 Z M 7.890625 -20.3125 C 8.378906 -20.3125 8.769531 -20.160156 9.0625 -19.859375 C 9.351562 -19.566406 9.5 -19.207031 9.5 -18.78125 C 9.5 -18.332031 9.351562 -17.957031 9.0625 -17.65625 C 8.769531 -17.351562 8.378906 -17.203125 7.890625 -17.203125 C 7.421875 -17.203125 7.035156 -17.351562 6.734375 -17.65625 C 6.441406 -17.957031 6.296875 -18.332031 6.296875 -18.78125 C 6.296875 -19.207031 6.441406 -19.566406 6.734375 -19.859375 C 7.035156 -20.160156 7.421875 -20.3125 7.890625 -20.3125 Z M 7.890625 -20.3125 "/></g></g></g><g fill="#050a30" fill-opacity="1"><g transform="translate(125.639156, 55.801451)"><g><path d="M 2.640625 0 L 2.640625 -13.84375 L 4.515625 -13.84375 L 4.6875 -11.921875 C 5.25 -12.628906 5.953125 -13.171875 6.796875 -13.546875 C 7.640625 -13.929688 8.460938 -14.125 9.265625 -14.125 C 10.617188 -14.125 11.601562 -13.765625 12.21875 -13.046875 C 12.84375 -12.328125 13.15625 -11.328125 13.15625 -10.046875 L 13.15625 0 L 10.953125 0 L 10.953125 -8.421875 C 10.953125 -9.367188 10.894531 -10.132812 10.78125 -10.71875 C 10.675781 -11.300781 10.457031 -11.722656 10.125 -11.984375 C 9.789062 -12.253906 9.273438 -12.390625 8.578125 -12.390625 C 8.035156 -12.390625 7.523438 -12.269531 7.046875 -12.03125 C 6.566406 -11.800781 6.140625 -11.507812 5.765625 -11.15625 C 5.398438 -10.800781 5.09375 -10.441406 4.84375 -10.078125 L 4.84375 0 Z M 2.640625 0 "/></g></g></g><g clip-path="url(#fb9b98d525)"><path fill="#050a30" d="M 5.125 23.269531 C 6.0625 23.992188 6.699219 24.675781 7.035156 25.324219 C 7.46875 26.179688 7.683594 27.195312 7.683594 28.375 L 7.683594 38.621094 C 7.683594 39.703125 7.992188 40.59375 8.609375 41.289062 C 9.230469 41.984375 9.996094 42.378906 10.914062 42.472656 C 11.496094 42.53125 11.878906 42.644531 12.066406 42.816406 C 12.308594 43.042969 12.433594 43.328125 12.433594 43.671875 C 12.433594 44.035156 12.308594 44.320312 12.066406 44.539062 C 11.824219 44.757812 11.46875 44.867188 11 44.867188 C 9.519531 44.867188 8.28125 44.394531 7.289062 43.441406 C 5.960938 42.128906 5.296875 40.535156 5.296875 38.648438 L 5.296875 28.375 C 5.296875 27.328125 4.988281 26.449219 4.367188 25.734375 C 3.75 25.023438 2.964844 24.625 2.007812 24.550781 C 1.484375 24.492188 1.117188 24.363281 0.914062 24.152344 C 0.707031 23.941406 0.605469 23.648438 0.605469 23.269531 C 0.605469 22.90625 0.707031 22.621094 0.914062 22.410156 C 1.117188 22.199219 1.484375 22.070312 2.007812 22.011719 C 2.980469 21.9375 3.773438 21.539062 4.382812 20.828125 C 4.992188 20.113281 5.296875 19.234375 5.296875 18.1875 L 5.296875 7.914062 C 5.296875 6.125 5.855469 4.636719 6.980469 3.449219 C 8.105469 2.257812 9.453125 1.664062 11.027344 1.664062 C 11.476562 1.664062 11.824219 1.777344 12.066406 2.007812 C 12.308594 2.234375 12.433594 2.519531 12.433594 2.863281 C 12.433594 3.207031 12.308594 3.488281 12.066406 3.71875 C 11.898438 3.910156 11.515625 4.03125 10.914062 4.089844 C 9.980469 4.1875 9.207031 4.585938 8.597656 5.289062 C 7.988281 5.992188 7.683594 6.867188 7.683594 7.914062 L 7.683594 18.1875 C 7.683594 19.386719 7.496094 20.351562 7.121094 21.082031 C 6.746094 21.816406 6.082031 22.542969 5.125 23.269531 " fill-opacity="1" fill-rule="nonzero"/></g><g clip-path="url(#a68db202f6)"><path fill="#050a30" d="M 144.875 52.242188 C 143.9375 51.519531 143.300781 50.835938 142.964844 50.1875 C 142.53125 49.332031 142.316406 48.3125 142.316406 47.132812 L 142.316406 36.886719 C 142.316406 35.804688 142.007812 34.914062 141.386719 34.222656 C 140.769531 33.527344 140.003906 33.132812 139.085938 33.035156 C 138.503906 32.980469 138.121094 32.863281 137.933594 32.695312 C 137.691406 32.46875 137.566406 32.179688 137.566406 31.835938 C 137.566406 31.476562 137.691406 31.1875 137.933594 30.96875 C 138.175781 30.75 138.53125 30.640625 139 30.640625 C 140.480469 30.640625 141.71875 31.113281 142.707031 32.066406 C 144.039062 33.378906 144.703125 34.976562 144.703125 36.859375 L 144.703125 47.132812 C 144.703125 48.179688 145.011719 49.058594 145.632812 49.773438 C 146.25 50.488281 147.035156 50.882812 147.992188 50.960938 C 148.515625 51.015625 148.882812 51.148438 149.085938 51.355469 C 149.292969 51.566406 149.394531 51.859375 149.394531 52.242188 C 149.394531 52.605469 149.292969 52.886719 149.085938 53.097656 C 148.882812 53.308594 148.515625 53.441406 147.992188 53.496094 C 147.019531 53.574219 146.226562 53.96875 145.617188 54.683594 C 145.007812 55.394531 144.703125 56.273438 144.703125 57.320312 L 144.703125 67.597656 C 144.703125 69.382812 144.144531 70.875 143.019531 72.0625 C 141.894531 73.25 140.546875 73.84375 138.972656 73.84375 C 138.523438 73.84375 138.175781 73.730469 137.933594 73.503906 C 137.691406 73.273438 137.566406 72.988281 137.566406 72.648438 C 137.566406 72.304688 137.691406 72.019531 137.933594 71.789062 C 138.101562 71.597656 138.484375 71.476562 139.085938 71.421875 C 140.019531 71.324219 140.792969 70.921875 141.402344 70.222656 C 142.011719 69.515625 142.316406 68.640625 142.316406 67.597656 L 142.316406 57.320312 C 142.316406 56.125 142.503906 55.15625 142.878906 54.425781 C 143.253906 53.695312 143.917969 52.964844 144.875 52.242188 " fill-opacity="1" fill-rule="nonzero"/></g></svg>